%TF.GenerationSoftware,KiCad,Pcbnew,9.0.3*%
%TF.CreationDate,2025-10-19T17:45:01-03:00*%
%TF.ProjectId,MacropadRP2040,4d616372-6f70-4616-9452-50323034302e,rev?*%
%TF.SameCoordinates,Original*%
%TF.FileFunction,Soldermask,Bot*%
%TF.FilePolarity,Negative*%
%FSLAX46Y46*%
G04 Gerber Fmt 4.6, Leading zero omitted, Abs format (unit mm)*
G04 Created by KiCad (PCBNEW 9.0.3) date 2025-10-19 17:45:01*
%MOMM*%
%LPD*%
G01*
G04 APERTURE LIST*
G04 Aperture macros list*
%AMRoundRect*
0 Rectangle with rounded corners*
0 $1 Rounding radius*
0 $2 $3 $4 $5 $6 $7 $8 $9 X,Y pos of 4 corners*
0 Add a 4 corners polygon primitive as box body*
4,1,4,$2,$3,$4,$5,$6,$7,$8,$9,$2,$3,0*
0 Add four circle primitives for the rounded corners*
1,1,$1+$1,$2,$3*
1,1,$1+$1,$4,$5*
1,1,$1+$1,$6,$7*
1,1,$1+$1,$8,$9*
0 Add four rect primitives between the rounded corners*
20,1,$1+$1,$2,$3,$4,$5,0*
20,1,$1+$1,$4,$5,$6,$7,0*
20,1,$1+$1,$6,$7,$8,$9,0*
20,1,$1+$1,$8,$9,$2,$3,0*%
G04 Aperture macros list end*
%ADD10RoundRect,0.250000X-1.025000X-1.000000X1.025000X-1.000000X1.025000X1.000000X-1.025000X1.000000X0*%
%ADD11C,1.750000*%
%ADD12C,4.000000*%
%ADD13C,3.600000*%
%ADD14RoundRect,0.102000X-0.754000X-0.754000X0.754000X-0.754000X0.754000X0.754000X-0.754000X0.754000X0*%
%ADD15C,1.712000*%
%ADD16R,2.000000X2.000000*%
%ADD17C,2.000000*%
%ADD18R,3.200000X2.000000*%
%ADD19RoundRect,0.225000X0.375000X-0.225000X0.375000X0.225000X-0.375000X0.225000X-0.375000X-0.225000X0*%
%ADD20RoundRect,0.237500X0.237500X-0.250000X0.237500X0.250000X-0.237500X0.250000X-0.237500X-0.250000X0*%
%ADD21RoundRect,0.237500X-0.300000X-0.237500X0.300000X-0.237500X0.300000X0.237500X-0.300000X0.237500X0*%
G04 APERTURE END LIST*
D10*
%TO.C,SW2*%
X26035000Y-10440000D03*
D11*
X28040000Y-12980000D03*
D12*
X33120000Y-12980000D03*
D11*
X38200000Y-12980000D03*
D10*
X38962000Y-7900000D03*
D13*
X29310000Y-10440000D03*
X35660000Y-7900000D03*
%TD*%
D10*
%TO.C,SW4*%
X6995000Y-29480000D03*
D11*
X9000000Y-32020000D03*
D12*
X14080000Y-32020000D03*
D11*
X19160000Y-32020000D03*
D10*
X19922000Y-26940000D03*
D13*
X10270000Y-29480000D03*
X16620000Y-26940000D03*
%TD*%
D14*
%TO.C,U1*%
X84950000Y-340000D03*
D15*
X84950000Y-2880000D03*
X84950000Y-5420000D03*
X84950000Y-7960000D03*
X84950000Y-10500000D03*
X84950000Y-13040000D03*
X84950000Y-15580000D03*
X84950000Y-18120000D03*
X84950000Y-20660000D03*
X82410000Y-20660000D03*
X79870000Y-20660000D03*
X77330000Y-20660000D03*
X74790000Y-20660000D03*
X72250000Y-20660000D03*
X69710000Y-20660000D03*
X69710000Y-18120000D03*
X69710000Y-15580000D03*
X69710000Y-13040000D03*
X69710000Y-10500000D03*
X69710000Y-7960000D03*
X69710000Y-5420000D03*
X69710000Y-2880000D03*
X69710000Y-340000D03*
%TD*%
D10*
%TO.C,SW1*%
X6995000Y-10440000D03*
D11*
X9000000Y-12980000D03*
D12*
X14080000Y-12980000D03*
D11*
X19160000Y-12980000D03*
D10*
X19922000Y-7900000D03*
D13*
X10270000Y-10440000D03*
X16620000Y-7900000D03*
%TD*%
D10*
%TO.C,SW6*%
X45075000Y-29480000D03*
D11*
X47080000Y-32020000D03*
D12*
X52160000Y-32020000D03*
D11*
X57240000Y-32020000D03*
D10*
X58002000Y-26940000D03*
D13*
X48350000Y-29480000D03*
X54700000Y-26940000D03*
%TD*%
D10*
%TO.C,SW3*%
X45075000Y-10440000D03*
D11*
X47080000Y-12980000D03*
D12*
X52160000Y-12980000D03*
D11*
X57240000Y-12980000D03*
D10*
X58002000Y-7900000D03*
D13*
X48350000Y-10440000D03*
X54700000Y-7900000D03*
%TD*%
D10*
%TO.C,SW5*%
X26035000Y-29480000D03*
D11*
X28040000Y-32020000D03*
D12*
X33120000Y-32020000D03*
D11*
X38200000Y-32020000D03*
D10*
X38962000Y-26940000D03*
D13*
X29310000Y-29480000D03*
X35660000Y-26940000D03*
%TD*%
D16*
%TO.C,SW7*%
X85330000Y-36730000D03*
D17*
X85330000Y-31730000D03*
X85330000Y-34230000D03*
D18*
X77830000Y-39830000D03*
X77830000Y-28630000D03*
D17*
X70830000Y-31730000D03*
X70830000Y-36730000D03*
%TD*%
D19*
%TO.C,D5*%
X23580000Y-35130000D03*
X23580000Y-31830000D03*
%TD*%
D20*
%TO.C,R1*%
X81080000Y-35292500D03*
X81080000Y-33467500D03*
%TD*%
D19*
%TO.C,D4*%
X4580000Y-35130000D03*
X4580000Y-31830000D03*
%TD*%
D21*
%TO.C,C1*%
X64855000Y-10480000D03*
X66580000Y-10480000D03*
%TD*%
%TO.C,C2*%
X64855000Y-8480000D03*
X66580000Y-8480000D03*
%TD*%
%TO.C,C4*%
X64855000Y-4450000D03*
X66580000Y-4450000D03*
%TD*%
D19*
%TO.C,D3*%
X42580000Y-16630000D03*
X42580000Y-13330000D03*
%TD*%
%TO.C,D2*%
X23580000Y-16630000D03*
X23580000Y-13330000D03*
%TD*%
D21*
%TO.C,C3*%
X64855000Y-6480000D03*
X66580000Y-6480000D03*
%TD*%
D19*
%TO.C,D6*%
X42580000Y-35130000D03*
X42580000Y-31830000D03*
%TD*%
D20*
%TO.C,R2*%
X73880000Y-35392500D03*
X73880000Y-33567500D03*
%TD*%
D19*
%TO.C,D1*%
X4580000Y-16380000D03*
X4580000Y-13080000D03*
%TD*%
M02*
