%TF.GenerationSoftware,KiCad,Pcbnew,9.0.3*%
%TF.CreationDate,2025-10-19T17:45:01-03:00*%
%TF.ProjectId,MacropadRP2040,4d616372-6f70-4616-9452-50323034302e,rev?*%
%TF.SameCoordinates,Original*%
%TF.FileFunction,Legend,Top*%
%TF.FilePolarity,Positive*%
%FSLAX46Y46*%
G04 Gerber Fmt 4.6, Leading zero omitted, Abs format (unit mm)*
G04 Created by KiCad (PCBNEW 9.0.3) date 2025-10-19 17:45:01*
%MOMM*%
%LPD*%
G01*
G04 APERTURE LIST*
%ADD10C,0.150000*%
%ADD11C,0.120000*%
%ADD12C,0.127000*%
%ADD13C,0.200000*%
G04 APERTURE END LIST*
D10*
X41591905Y-4204819D02*
X41591905Y-3204819D01*
X41591905Y-3204819D02*
X41830000Y-3204819D01*
X41830000Y-3204819D02*
X41972857Y-3252438D01*
X41972857Y-3252438D02*
X42068095Y-3347676D01*
X42068095Y-3347676D02*
X42115714Y-3442914D01*
X42115714Y-3442914D02*
X42163333Y-3633390D01*
X42163333Y-3633390D02*
X42163333Y-3776247D01*
X42163333Y-3776247D02*
X42115714Y-3966723D01*
X42115714Y-3966723D02*
X42068095Y-4061961D01*
X42068095Y-4061961D02*
X41972857Y-4157200D01*
X41972857Y-4157200D02*
X41830000Y-4204819D01*
X41830000Y-4204819D02*
X41591905Y-4204819D01*
X42734762Y-3633390D02*
X42639524Y-3585771D01*
X42639524Y-3585771D02*
X42591905Y-3538152D01*
X42591905Y-3538152D02*
X42544286Y-3442914D01*
X42544286Y-3442914D02*
X42544286Y-3395295D01*
X42544286Y-3395295D02*
X42591905Y-3300057D01*
X42591905Y-3300057D02*
X42639524Y-3252438D01*
X42639524Y-3252438D02*
X42734762Y-3204819D01*
X42734762Y-3204819D02*
X42925238Y-3204819D01*
X42925238Y-3204819D02*
X43020476Y-3252438D01*
X43020476Y-3252438D02*
X43068095Y-3300057D01*
X43068095Y-3300057D02*
X43115714Y-3395295D01*
X43115714Y-3395295D02*
X43115714Y-3442914D01*
X43115714Y-3442914D02*
X43068095Y-3538152D01*
X43068095Y-3538152D02*
X43020476Y-3585771D01*
X43020476Y-3585771D02*
X42925238Y-3633390D01*
X42925238Y-3633390D02*
X42734762Y-3633390D01*
X42734762Y-3633390D02*
X42639524Y-3681009D01*
X42639524Y-3681009D02*
X42591905Y-3728628D01*
X42591905Y-3728628D02*
X42544286Y-3823866D01*
X42544286Y-3823866D02*
X42544286Y-4014342D01*
X42544286Y-4014342D02*
X42591905Y-4109580D01*
X42591905Y-4109580D02*
X42639524Y-4157200D01*
X42639524Y-4157200D02*
X42734762Y-4204819D01*
X42734762Y-4204819D02*
X42925238Y-4204819D01*
X42925238Y-4204819D02*
X43020476Y-4157200D01*
X43020476Y-4157200D02*
X43068095Y-4109580D01*
X43068095Y-4109580D02*
X43115714Y-4014342D01*
X43115714Y-4014342D02*
X43115714Y-3823866D01*
X43115714Y-3823866D02*
X43068095Y-3728628D01*
X43068095Y-3728628D02*
X43020476Y-3681009D01*
X43020476Y-3681009D02*
X42925238Y-3633390D01*
X51351428Y-3237704D02*
X51808571Y-3237704D01*
X51579999Y-3237704D02*
X51579999Y-4037704D01*
X51579999Y-4037704D02*
X51656190Y-3923419D01*
X51656190Y-3923419D02*
X51732380Y-3847228D01*
X51732380Y-3847228D02*
X51808571Y-3809133D01*
X31786667Y-5387200D02*
X31929524Y-5434819D01*
X31929524Y-5434819D02*
X32167619Y-5434819D01*
X32167619Y-5434819D02*
X32262857Y-5387200D01*
X32262857Y-5387200D02*
X32310476Y-5339580D01*
X32310476Y-5339580D02*
X32358095Y-5244342D01*
X32358095Y-5244342D02*
X32358095Y-5149104D01*
X32358095Y-5149104D02*
X32310476Y-5053866D01*
X32310476Y-5053866D02*
X32262857Y-5006247D01*
X32262857Y-5006247D02*
X32167619Y-4958628D01*
X32167619Y-4958628D02*
X31977143Y-4911009D01*
X31977143Y-4911009D02*
X31881905Y-4863390D01*
X31881905Y-4863390D02*
X31834286Y-4815771D01*
X31834286Y-4815771D02*
X31786667Y-4720533D01*
X31786667Y-4720533D02*
X31786667Y-4625295D01*
X31786667Y-4625295D02*
X31834286Y-4530057D01*
X31834286Y-4530057D02*
X31881905Y-4482438D01*
X31881905Y-4482438D02*
X31977143Y-4434819D01*
X31977143Y-4434819D02*
X32215238Y-4434819D01*
X32215238Y-4434819D02*
X32358095Y-4482438D01*
X32691429Y-4434819D02*
X32929524Y-5434819D01*
X32929524Y-5434819D02*
X33120000Y-4720533D01*
X33120000Y-4720533D02*
X33310476Y-5434819D01*
X33310476Y-5434819D02*
X33548572Y-4434819D01*
X33881905Y-4530057D02*
X33929524Y-4482438D01*
X33929524Y-4482438D02*
X34024762Y-4434819D01*
X34024762Y-4434819D02*
X34262857Y-4434819D01*
X34262857Y-4434819D02*
X34358095Y-4482438D01*
X34358095Y-4482438D02*
X34405714Y-4530057D01*
X34405714Y-4530057D02*
X34453333Y-4625295D01*
X34453333Y-4625295D02*
X34453333Y-4720533D01*
X34453333Y-4720533D02*
X34405714Y-4863390D01*
X34405714Y-4863390D02*
X33834286Y-5434819D01*
X33834286Y-5434819D02*
X34453333Y-5434819D01*
X64913333Y-16122319D02*
X64580000Y-15646128D01*
X64341905Y-16122319D02*
X64341905Y-15122319D01*
X64341905Y-15122319D02*
X64722857Y-15122319D01*
X64722857Y-15122319D02*
X64818095Y-15169938D01*
X64818095Y-15169938D02*
X64865714Y-15217557D01*
X64865714Y-15217557D02*
X64913333Y-15312795D01*
X64913333Y-15312795D02*
X64913333Y-15455652D01*
X64913333Y-15455652D02*
X64865714Y-15550890D01*
X64865714Y-15550890D02*
X64818095Y-15598509D01*
X64818095Y-15598509D02*
X64722857Y-15646128D01*
X64722857Y-15646128D02*
X64341905Y-15646128D01*
X65770476Y-15455652D02*
X65770476Y-16122319D01*
X65532381Y-15074700D02*
X65294286Y-15788985D01*
X65294286Y-15788985D02*
X65913333Y-15788985D01*
X7141905Y-22934819D02*
X7141905Y-21934819D01*
X7141905Y-21934819D02*
X7380000Y-21934819D01*
X7380000Y-21934819D02*
X7522857Y-21982438D01*
X7522857Y-21982438D02*
X7618095Y-22077676D01*
X7618095Y-22077676D02*
X7665714Y-22172914D01*
X7665714Y-22172914D02*
X7713333Y-22363390D01*
X7713333Y-22363390D02*
X7713333Y-22506247D01*
X7713333Y-22506247D02*
X7665714Y-22696723D01*
X7665714Y-22696723D02*
X7618095Y-22791961D01*
X7618095Y-22791961D02*
X7522857Y-22887200D01*
X7522857Y-22887200D02*
X7380000Y-22934819D01*
X7380000Y-22934819D02*
X7141905Y-22934819D01*
X8189524Y-22934819D02*
X8380000Y-22934819D01*
X8380000Y-22934819D02*
X8475238Y-22887200D01*
X8475238Y-22887200D02*
X8522857Y-22839580D01*
X8522857Y-22839580D02*
X8618095Y-22696723D01*
X8618095Y-22696723D02*
X8665714Y-22506247D01*
X8665714Y-22506247D02*
X8665714Y-22125295D01*
X8665714Y-22125295D02*
X8618095Y-22030057D01*
X8618095Y-22030057D02*
X8570476Y-21982438D01*
X8570476Y-21982438D02*
X8475238Y-21934819D01*
X8475238Y-21934819D02*
X8284762Y-21934819D01*
X8284762Y-21934819D02*
X8189524Y-21982438D01*
X8189524Y-21982438D02*
X8141905Y-22030057D01*
X8141905Y-22030057D02*
X8094286Y-22125295D01*
X8094286Y-22125295D02*
X8094286Y-22363390D01*
X8094286Y-22363390D02*
X8141905Y-22458628D01*
X8141905Y-22458628D02*
X8189524Y-22506247D01*
X8189524Y-22506247D02*
X8284762Y-22553866D01*
X8284762Y-22553866D02*
X8475238Y-22553866D01*
X8475238Y-22553866D02*
X8570476Y-22506247D01*
X8570476Y-22506247D02*
X8618095Y-22458628D01*
X8618095Y-22458628D02*
X8665714Y-22363390D01*
X5117704Y-18708571D02*
X5117704Y-18251428D01*
X5117704Y-18480000D02*
X5917704Y-18480000D01*
X5917704Y-18480000D02*
X5803419Y-18403809D01*
X5803419Y-18403809D02*
X5727228Y-18327619D01*
X5727228Y-18327619D02*
X5689133Y-18251428D01*
X12746667Y-24427200D02*
X12889524Y-24474819D01*
X12889524Y-24474819D02*
X13127619Y-24474819D01*
X13127619Y-24474819D02*
X13222857Y-24427200D01*
X13222857Y-24427200D02*
X13270476Y-24379580D01*
X13270476Y-24379580D02*
X13318095Y-24284342D01*
X13318095Y-24284342D02*
X13318095Y-24189104D01*
X13318095Y-24189104D02*
X13270476Y-24093866D01*
X13270476Y-24093866D02*
X13222857Y-24046247D01*
X13222857Y-24046247D02*
X13127619Y-23998628D01*
X13127619Y-23998628D02*
X12937143Y-23951009D01*
X12937143Y-23951009D02*
X12841905Y-23903390D01*
X12841905Y-23903390D02*
X12794286Y-23855771D01*
X12794286Y-23855771D02*
X12746667Y-23760533D01*
X12746667Y-23760533D02*
X12746667Y-23665295D01*
X12746667Y-23665295D02*
X12794286Y-23570057D01*
X12794286Y-23570057D02*
X12841905Y-23522438D01*
X12841905Y-23522438D02*
X12937143Y-23474819D01*
X12937143Y-23474819D02*
X13175238Y-23474819D01*
X13175238Y-23474819D02*
X13318095Y-23522438D01*
X13651429Y-23474819D02*
X13889524Y-24474819D01*
X13889524Y-24474819D02*
X14080000Y-23760533D01*
X14080000Y-23760533D02*
X14270476Y-24474819D01*
X14270476Y-24474819D02*
X14508572Y-23474819D01*
X15318095Y-23808152D02*
X15318095Y-24474819D01*
X15080000Y-23427200D02*
X14841905Y-24141485D01*
X14841905Y-24141485D02*
X15460952Y-24141485D01*
X51865714Y-41204819D02*
X51865714Y-40204819D01*
X51865714Y-40204819D02*
X52103809Y-40204819D01*
X52103809Y-40204819D02*
X52246666Y-40252438D01*
X52246666Y-40252438D02*
X52341904Y-40347676D01*
X52341904Y-40347676D02*
X52389523Y-40442914D01*
X52389523Y-40442914D02*
X52437142Y-40633390D01*
X52437142Y-40633390D02*
X52437142Y-40776247D01*
X52437142Y-40776247D02*
X52389523Y-40966723D01*
X52389523Y-40966723D02*
X52341904Y-41061961D01*
X52341904Y-41061961D02*
X52246666Y-41157200D01*
X52246666Y-41157200D02*
X52103809Y-41204819D01*
X52103809Y-41204819D02*
X51865714Y-41204819D01*
X53389523Y-41204819D02*
X52818095Y-41204819D01*
X53103809Y-41204819D02*
X53103809Y-40204819D01*
X53103809Y-40204819D02*
X53008571Y-40347676D01*
X53008571Y-40347676D02*
X52913333Y-40442914D01*
X52913333Y-40442914D02*
X52818095Y-40490533D01*
X54008571Y-40204819D02*
X54103809Y-40204819D01*
X54103809Y-40204819D02*
X54199047Y-40252438D01*
X54199047Y-40252438D02*
X54246666Y-40300057D01*
X54246666Y-40300057D02*
X54294285Y-40395295D01*
X54294285Y-40395295D02*
X54341904Y-40585771D01*
X54341904Y-40585771D02*
X54341904Y-40823866D01*
X54341904Y-40823866D02*
X54294285Y-41014342D01*
X54294285Y-41014342D02*
X54246666Y-41109580D01*
X54246666Y-41109580D02*
X54199047Y-41157200D01*
X54199047Y-41157200D02*
X54103809Y-41204819D01*
X54103809Y-41204819D02*
X54008571Y-41204819D01*
X54008571Y-41204819D02*
X53913333Y-41157200D01*
X53913333Y-41157200D02*
X53865714Y-41109580D01*
X53865714Y-41109580D02*
X53818095Y-41014342D01*
X53818095Y-41014342D02*
X53770476Y-40823866D01*
X53770476Y-40823866D02*
X53770476Y-40585771D01*
X53770476Y-40585771D02*
X53818095Y-40395295D01*
X53818095Y-40395295D02*
X53865714Y-40300057D01*
X53865714Y-40300057D02*
X53913333Y-40252438D01*
X53913333Y-40252438D02*
X54008571Y-40204819D01*
X43808571Y-41512295D02*
X43351428Y-41512295D01*
X43580000Y-41512295D02*
X43580000Y-40712295D01*
X43580000Y-40712295D02*
X43503809Y-40826580D01*
X43503809Y-40826580D02*
X43427619Y-40902771D01*
X43427619Y-40902771D02*
X43351428Y-40940866D01*
X63230057Y-21512738D02*
X63182438Y-21607976D01*
X63182438Y-21607976D02*
X63087200Y-21703214D01*
X63087200Y-21703214D02*
X62944342Y-21846071D01*
X62944342Y-21846071D02*
X62896723Y-21941309D01*
X62896723Y-21941309D02*
X62896723Y-22036547D01*
X63134819Y-21988928D02*
X63087200Y-22084166D01*
X63087200Y-22084166D02*
X62991961Y-22179404D01*
X62991961Y-22179404D02*
X62801485Y-22227023D01*
X62801485Y-22227023D02*
X62468152Y-22227023D01*
X62468152Y-22227023D02*
X62277676Y-22179404D01*
X62277676Y-22179404D02*
X62182438Y-22084166D01*
X62182438Y-22084166D02*
X62134819Y-21988928D01*
X62134819Y-21988928D02*
X62134819Y-21798452D01*
X62134819Y-21798452D02*
X62182438Y-21703214D01*
X62182438Y-21703214D02*
X62277676Y-21607976D01*
X62277676Y-21607976D02*
X62468152Y-21560357D01*
X62468152Y-21560357D02*
X62801485Y-21560357D01*
X62801485Y-21560357D02*
X62991961Y-21607976D01*
X62991961Y-21607976D02*
X63087200Y-21703214D01*
X63087200Y-21703214D02*
X63134819Y-21798452D01*
X63134819Y-21798452D02*
X63134819Y-21988928D01*
X63134819Y-20607976D02*
X63134819Y-21179404D01*
X63134819Y-20893690D02*
X62134819Y-20893690D01*
X62134819Y-20893690D02*
X62277676Y-20988928D01*
X62277676Y-20988928D02*
X62372914Y-21084166D01*
X62372914Y-21084166D02*
X62420533Y-21179404D01*
X70743095Y4180180D02*
X70743095Y3370657D01*
X70743095Y3370657D02*
X70790714Y3275419D01*
X70790714Y3275419D02*
X70838333Y3227800D01*
X70838333Y3227800D02*
X70933571Y3180180D01*
X70933571Y3180180D02*
X71124047Y3180180D01*
X71124047Y3180180D02*
X71219285Y3227800D01*
X71219285Y3227800D02*
X71266904Y3275419D01*
X71266904Y3275419D02*
X71314523Y3370657D01*
X71314523Y3370657D02*
X71314523Y4180180D01*
X72314523Y3180180D02*
X71743095Y3180180D01*
X72028809Y3180180D02*
X72028809Y4180180D01*
X72028809Y4180180D02*
X71933571Y4037323D01*
X71933571Y4037323D02*
X71838333Y3942085D01*
X71838333Y3942085D02*
X71743095Y3894466D01*
X12746667Y-5387200D02*
X12889524Y-5434819D01*
X12889524Y-5434819D02*
X13127619Y-5434819D01*
X13127619Y-5434819D02*
X13222857Y-5387200D01*
X13222857Y-5387200D02*
X13270476Y-5339580D01*
X13270476Y-5339580D02*
X13318095Y-5244342D01*
X13318095Y-5244342D02*
X13318095Y-5149104D01*
X13318095Y-5149104D02*
X13270476Y-5053866D01*
X13270476Y-5053866D02*
X13222857Y-5006247D01*
X13222857Y-5006247D02*
X13127619Y-4958628D01*
X13127619Y-4958628D02*
X12937143Y-4911009D01*
X12937143Y-4911009D02*
X12841905Y-4863390D01*
X12841905Y-4863390D02*
X12794286Y-4815771D01*
X12794286Y-4815771D02*
X12746667Y-4720533D01*
X12746667Y-4720533D02*
X12746667Y-4625295D01*
X12746667Y-4625295D02*
X12794286Y-4530057D01*
X12794286Y-4530057D02*
X12841905Y-4482438D01*
X12841905Y-4482438D02*
X12937143Y-4434819D01*
X12937143Y-4434819D02*
X13175238Y-4434819D01*
X13175238Y-4434819D02*
X13318095Y-4482438D01*
X13651429Y-4434819D02*
X13889524Y-5434819D01*
X13889524Y-5434819D02*
X14080000Y-4720533D01*
X14080000Y-4720533D02*
X14270476Y-5434819D01*
X14270476Y-5434819D02*
X14508572Y-4434819D01*
X15413333Y-5434819D02*
X14841905Y-5434819D01*
X15127619Y-5434819D02*
X15127619Y-4434819D01*
X15127619Y-4434819D02*
X15032381Y-4577676D01*
X15032381Y-4577676D02*
X14937143Y-4672914D01*
X14937143Y-4672914D02*
X14841905Y-4720533D01*
X50826667Y-24427200D02*
X50969524Y-24474819D01*
X50969524Y-24474819D02*
X51207619Y-24474819D01*
X51207619Y-24474819D02*
X51302857Y-24427200D01*
X51302857Y-24427200D02*
X51350476Y-24379580D01*
X51350476Y-24379580D02*
X51398095Y-24284342D01*
X51398095Y-24284342D02*
X51398095Y-24189104D01*
X51398095Y-24189104D02*
X51350476Y-24093866D01*
X51350476Y-24093866D02*
X51302857Y-24046247D01*
X51302857Y-24046247D02*
X51207619Y-23998628D01*
X51207619Y-23998628D02*
X51017143Y-23951009D01*
X51017143Y-23951009D02*
X50921905Y-23903390D01*
X50921905Y-23903390D02*
X50874286Y-23855771D01*
X50874286Y-23855771D02*
X50826667Y-23760533D01*
X50826667Y-23760533D02*
X50826667Y-23665295D01*
X50826667Y-23665295D02*
X50874286Y-23570057D01*
X50874286Y-23570057D02*
X50921905Y-23522438D01*
X50921905Y-23522438D02*
X51017143Y-23474819D01*
X51017143Y-23474819D02*
X51255238Y-23474819D01*
X51255238Y-23474819D02*
X51398095Y-23522438D01*
X51731429Y-23474819D02*
X51969524Y-24474819D01*
X51969524Y-24474819D02*
X52160000Y-23760533D01*
X52160000Y-23760533D02*
X52350476Y-24474819D01*
X52350476Y-24474819D02*
X52588572Y-23474819D01*
X53398095Y-23474819D02*
X53207619Y-23474819D01*
X53207619Y-23474819D02*
X53112381Y-23522438D01*
X53112381Y-23522438D02*
X53064762Y-23570057D01*
X53064762Y-23570057D02*
X52969524Y-23712914D01*
X52969524Y-23712914D02*
X52921905Y-23903390D01*
X52921905Y-23903390D02*
X52921905Y-24284342D01*
X52921905Y-24284342D02*
X52969524Y-24379580D01*
X52969524Y-24379580D02*
X53017143Y-24427200D01*
X53017143Y-24427200D02*
X53112381Y-24474819D01*
X53112381Y-24474819D02*
X53302857Y-24474819D01*
X53302857Y-24474819D02*
X53398095Y-24427200D01*
X53398095Y-24427200D02*
X53445714Y-24379580D01*
X53445714Y-24379580D02*
X53493333Y-24284342D01*
X53493333Y-24284342D02*
X53493333Y-24046247D01*
X53493333Y-24046247D02*
X53445714Y-23951009D01*
X53445714Y-23951009D02*
X53398095Y-23903390D01*
X53398095Y-23903390D02*
X53302857Y-23855771D01*
X53302857Y-23855771D02*
X53112381Y-23855771D01*
X53112381Y-23855771D02*
X53017143Y-23903390D01*
X53017143Y-23903390D02*
X52969524Y-23951009D01*
X52969524Y-23951009D02*
X52921905Y-24046247D01*
X50826667Y-5387200D02*
X50969524Y-5434819D01*
X50969524Y-5434819D02*
X51207619Y-5434819D01*
X51207619Y-5434819D02*
X51302857Y-5387200D01*
X51302857Y-5387200D02*
X51350476Y-5339580D01*
X51350476Y-5339580D02*
X51398095Y-5244342D01*
X51398095Y-5244342D02*
X51398095Y-5149104D01*
X51398095Y-5149104D02*
X51350476Y-5053866D01*
X51350476Y-5053866D02*
X51302857Y-5006247D01*
X51302857Y-5006247D02*
X51207619Y-4958628D01*
X51207619Y-4958628D02*
X51017143Y-4911009D01*
X51017143Y-4911009D02*
X50921905Y-4863390D01*
X50921905Y-4863390D02*
X50874286Y-4815771D01*
X50874286Y-4815771D02*
X50826667Y-4720533D01*
X50826667Y-4720533D02*
X50826667Y-4625295D01*
X50826667Y-4625295D02*
X50874286Y-4530057D01*
X50874286Y-4530057D02*
X50921905Y-4482438D01*
X50921905Y-4482438D02*
X51017143Y-4434819D01*
X51017143Y-4434819D02*
X51255238Y-4434819D01*
X51255238Y-4434819D02*
X51398095Y-4482438D01*
X51731429Y-4434819D02*
X51969524Y-5434819D01*
X51969524Y-5434819D02*
X52160000Y-4720533D01*
X52160000Y-4720533D02*
X52350476Y-5434819D01*
X52350476Y-5434819D02*
X52588572Y-4434819D01*
X52874286Y-4434819D02*
X53493333Y-4434819D01*
X53493333Y-4434819D02*
X53160000Y-4815771D01*
X53160000Y-4815771D02*
X53302857Y-4815771D01*
X53302857Y-4815771D02*
X53398095Y-4863390D01*
X53398095Y-4863390D02*
X53445714Y-4911009D01*
X53445714Y-4911009D02*
X53493333Y-5006247D01*
X53493333Y-5006247D02*
X53493333Y-5244342D01*
X53493333Y-5244342D02*
X53445714Y-5339580D01*
X53445714Y-5339580D02*
X53398095Y-5387200D01*
X53398095Y-5387200D02*
X53302857Y-5434819D01*
X53302857Y-5434819D02*
X53017143Y-5434819D01*
X53017143Y-5434819D02*
X52921905Y-5387200D01*
X52921905Y-5387200D02*
X52874286Y-5339580D01*
X31786667Y-24427200D02*
X31929524Y-24474819D01*
X31929524Y-24474819D02*
X32167619Y-24474819D01*
X32167619Y-24474819D02*
X32262857Y-24427200D01*
X32262857Y-24427200D02*
X32310476Y-24379580D01*
X32310476Y-24379580D02*
X32358095Y-24284342D01*
X32358095Y-24284342D02*
X32358095Y-24189104D01*
X32358095Y-24189104D02*
X32310476Y-24093866D01*
X32310476Y-24093866D02*
X32262857Y-24046247D01*
X32262857Y-24046247D02*
X32167619Y-23998628D01*
X32167619Y-23998628D02*
X31977143Y-23951009D01*
X31977143Y-23951009D02*
X31881905Y-23903390D01*
X31881905Y-23903390D02*
X31834286Y-23855771D01*
X31834286Y-23855771D02*
X31786667Y-23760533D01*
X31786667Y-23760533D02*
X31786667Y-23665295D01*
X31786667Y-23665295D02*
X31834286Y-23570057D01*
X31834286Y-23570057D02*
X31881905Y-23522438D01*
X31881905Y-23522438D02*
X31977143Y-23474819D01*
X31977143Y-23474819D02*
X32215238Y-23474819D01*
X32215238Y-23474819D02*
X32358095Y-23522438D01*
X32691429Y-23474819D02*
X32929524Y-24474819D01*
X32929524Y-24474819D02*
X33120000Y-23760533D01*
X33120000Y-23760533D02*
X33310476Y-24474819D01*
X33310476Y-24474819D02*
X33548572Y-23474819D01*
X34405714Y-23474819D02*
X33929524Y-23474819D01*
X33929524Y-23474819D02*
X33881905Y-23951009D01*
X33881905Y-23951009D02*
X33929524Y-23903390D01*
X33929524Y-23903390D02*
X34024762Y-23855771D01*
X34024762Y-23855771D02*
X34262857Y-23855771D01*
X34262857Y-23855771D02*
X34358095Y-23903390D01*
X34358095Y-23903390D02*
X34405714Y-23951009D01*
X34405714Y-23951009D02*
X34453333Y-24046247D01*
X34453333Y-24046247D02*
X34453333Y-24284342D01*
X34453333Y-24284342D02*
X34405714Y-24379580D01*
X34405714Y-24379580D02*
X34358095Y-24427200D01*
X34358095Y-24427200D02*
X34262857Y-24474819D01*
X34262857Y-24474819D02*
X34024762Y-24474819D01*
X34024762Y-24474819D02*
X33929524Y-24427200D01*
X33929524Y-24427200D02*
X33881905Y-24379580D01*
X87341905Y-27934819D02*
X87341905Y-26934819D01*
X87341905Y-26934819D02*
X87580000Y-26934819D01*
X87580000Y-26934819D02*
X87722857Y-26982438D01*
X87722857Y-26982438D02*
X87818095Y-27077676D01*
X87818095Y-27077676D02*
X87865714Y-27172914D01*
X87865714Y-27172914D02*
X87913333Y-27363390D01*
X87913333Y-27363390D02*
X87913333Y-27506247D01*
X87913333Y-27506247D02*
X87865714Y-27696723D01*
X87865714Y-27696723D02*
X87818095Y-27791961D01*
X87818095Y-27791961D02*
X87722857Y-27887200D01*
X87722857Y-27887200D02*
X87580000Y-27934819D01*
X87580000Y-27934819D02*
X87341905Y-27934819D01*
X88246667Y-26934819D02*
X88913333Y-26934819D01*
X88913333Y-26934819D02*
X88484762Y-27934819D01*
X91067704Y-18708571D02*
X91067704Y-18251428D01*
X91067704Y-18480000D02*
X91867704Y-18480000D01*
X91867704Y-18480000D02*
X91753419Y-18403809D01*
X91753419Y-18403809D02*
X91677228Y-18327619D01*
X91677228Y-18327619D02*
X91639133Y-18251428D01*
X64913333Y-24372319D02*
X64580000Y-23896128D01*
X64341905Y-24372319D02*
X64341905Y-23372319D01*
X64341905Y-23372319D02*
X64722857Y-23372319D01*
X64722857Y-23372319D02*
X64818095Y-23419938D01*
X64818095Y-23419938D02*
X64865714Y-23467557D01*
X64865714Y-23467557D02*
X64913333Y-23562795D01*
X64913333Y-23562795D02*
X64913333Y-23705652D01*
X64913333Y-23705652D02*
X64865714Y-23800890D01*
X64865714Y-23800890D02*
X64818095Y-23848509D01*
X64818095Y-23848509D02*
X64722857Y-23896128D01*
X64722857Y-23896128D02*
X64341905Y-23896128D01*
X65246667Y-23372319D02*
X65865714Y-23372319D01*
X65865714Y-23372319D02*
X65532381Y-23753271D01*
X65532381Y-23753271D02*
X65675238Y-23753271D01*
X65675238Y-23753271D02*
X65770476Y-23800890D01*
X65770476Y-23800890D02*
X65818095Y-23848509D01*
X65818095Y-23848509D02*
X65865714Y-23943747D01*
X65865714Y-23943747D02*
X65865714Y-24181842D01*
X65865714Y-24181842D02*
X65818095Y-24277080D01*
X65818095Y-24277080D02*
X65770476Y-24324700D01*
X65770476Y-24324700D02*
X65675238Y-24372319D01*
X65675238Y-24372319D02*
X65389524Y-24372319D01*
X65389524Y-24372319D02*
X65294286Y-24324700D01*
X65294286Y-24324700D02*
X65246667Y-24277080D01*
X81196667Y-41837200D02*
X81339524Y-41884819D01*
X81339524Y-41884819D02*
X81577619Y-41884819D01*
X81577619Y-41884819D02*
X81672857Y-41837200D01*
X81672857Y-41837200D02*
X81720476Y-41789580D01*
X81720476Y-41789580D02*
X81768095Y-41694342D01*
X81768095Y-41694342D02*
X81768095Y-41599104D01*
X81768095Y-41599104D02*
X81720476Y-41503866D01*
X81720476Y-41503866D02*
X81672857Y-41456247D01*
X81672857Y-41456247D02*
X81577619Y-41408628D01*
X81577619Y-41408628D02*
X81387143Y-41361009D01*
X81387143Y-41361009D02*
X81291905Y-41313390D01*
X81291905Y-41313390D02*
X81244286Y-41265771D01*
X81244286Y-41265771D02*
X81196667Y-41170533D01*
X81196667Y-41170533D02*
X81196667Y-41075295D01*
X81196667Y-41075295D02*
X81244286Y-40980057D01*
X81244286Y-40980057D02*
X81291905Y-40932438D01*
X81291905Y-40932438D02*
X81387143Y-40884819D01*
X81387143Y-40884819D02*
X81625238Y-40884819D01*
X81625238Y-40884819D02*
X81768095Y-40932438D01*
X82101429Y-40884819D02*
X82339524Y-41884819D01*
X82339524Y-41884819D02*
X82530000Y-41170533D01*
X82530000Y-41170533D02*
X82720476Y-41884819D01*
X82720476Y-41884819D02*
X82958572Y-40884819D01*
X83244286Y-40884819D02*
X83910952Y-40884819D01*
X83910952Y-40884819D02*
X83482381Y-41884819D01*
D11*
%TO.C,D8*%
X51080000Y-4750000D02*
X51080000Y750000D01*
X51080000Y-4750000D02*
X44080000Y-4750000D01*
X51080000Y750000D02*
X44530000Y750000D01*
X50280000Y-1100000D02*
X50280000Y-2900000D01*
X44880000Y-1100000D02*
X44880000Y-2900000D01*
X44530000Y750000D02*
X44080000Y300000D01*
X44080000Y300000D02*
X44080000Y-4750000D01*
%TO.C,SW2*%
X26020000Y-5880000D02*
X26020000Y-20080000D01*
X26020000Y-20080000D02*
X40220000Y-20080000D01*
X40220000Y-5880000D02*
X26020000Y-5880000D01*
X40220000Y-20080000D02*
X40220000Y-5880000D01*
%TO.C,R4*%
X64825276Y-16645000D02*
X65334724Y-16645000D01*
X64825276Y-17690000D02*
X65334724Y-17690000D01*
%TO.C,D9*%
X1130000Y-18980000D02*
X1130000Y-25530000D01*
X1130000Y-25530000D02*
X1580000Y-25980000D01*
X1580000Y-25980000D02*
X6630000Y-25980000D01*
X2980000Y-19780000D02*
X4780000Y-19780000D01*
X2980000Y-25180000D02*
X4780000Y-25180000D01*
X6630000Y-18980000D02*
X1130000Y-18980000D01*
X6630000Y-18980000D02*
X6630000Y-25980000D01*
%TO.C,SW4*%
X6980000Y-24920000D02*
X6980000Y-39120000D01*
X6980000Y-39120000D02*
X21180000Y-39120000D01*
X21180000Y-24920000D02*
X6980000Y-24920000D01*
X21180000Y-39120000D02*
X21180000Y-24920000D01*
%TO.C,D10*%
X44080000Y-40000000D02*
X44080000Y-45500000D01*
X44080000Y-40000000D02*
X51080000Y-40000000D01*
X44080000Y-45500000D02*
X50630000Y-45500000D01*
X44880000Y-43650000D02*
X44880000Y-41850000D01*
X50280000Y-43650000D02*
X50280000Y-41850000D01*
X50630000Y-45500000D02*
X51080000Y-45050000D01*
X51080000Y-45050000D02*
X51080000Y-40000000D01*
%TO.C,Q1*%
X63520000Y-21417500D02*
X63520000Y-20767500D01*
X63520000Y-21417500D02*
X63520000Y-22067500D01*
X66640000Y-21417500D02*
X66640000Y-20767500D01*
X66640000Y-21417500D02*
X66640000Y-22067500D01*
X63570000Y-22580000D02*
X63240000Y-22820000D01*
X63240000Y-22340000D01*
X63570000Y-22580000D01*
G36*
X63570000Y-22580000D02*
G01*
X63240000Y-22820000D01*
X63240000Y-22340000D01*
X63570000Y-22580000D01*
G37*
D12*
%TO.C,U1*%
X68330000Y250000D02*
X68330000Y-21250000D01*
X69330000Y-22250000D02*
X85330000Y-22250000D01*
X85330000Y1250000D02*
X69330000Y1250000D01*
X86330000Y-21250000D02*
X86330000Y250000D01*
X68330000Y250000D02*
G75*
G02*
X69330000Y1250000I999999J1D01*
G01*
X69330000Y-22250000D02*
G75*
G02*
X68330000Y-21250000I-1J999999D01*
G01*
X85330000Y1250000D02*
G75*
G02*
X86330000Y250000I0J-1000000D01*
G01*
X86330000Y-21250000D02*
G75*
G02*
X85330000Y-22250000I-1000000J0D01*
G01*
D13*
X87180000Y-340000D02*
G75*
G02*
X86980000Y-340000I-100000J0D01*
G01*
X86980000Y-340000D02*
G75*
G02*
X87180000Y-340000I100000J0D01*
G01*
D11*
%TO.C,SW1*%
X6980000Y-5880000D02*
X6980000Y-20080000D01*
X6980000Y-20080000D02*
X21180000Y-20080000D01*
X21180000Y-5880000D02*
X6980000Y-5880000D01*
X21180000Y-20080000D02*
X21180000Y-5880000D01*
%TO.C,SW6*%
X45060000Y-24920000D02*
X45060000Y-39120000D01*
X45060000Y-39120000D02*
X59260000Y-39120000D01*
X59260000Y-24920000D02*
X45060000Y-24920000D01*
X59260000Y-39120000D02*
X59260000Y-24920000D01*
%TO.C,SW3*%
X45060000Y-5880000D02*
X45060000Y-20080000D01*
X45060000Y-20080000D02*
X59260000Y-20080000D01*
X59260000Y-5880000D02*
X45060000Y-5880000D01*
X59260000Y-20080000D02*
X59260000Y-5880000D01*
%TO.C,SW5*%
X26020000Y-24920000D02*
X26020000Y-39120000D01*
X26020000Y-39120000D02*
X40220000Y-39120000D01*
X40220000Y-24920000D02*
X26020000Y-24920000D01*
X40220000Y-39120000D02*
X40220000Y-24920000D01*
%TO.C,D7*%
X87080000Y-18980000D02*
X87080000Y-25530000D01*
X87080000Y-25530000D02*
X87530000Y-25980000D01*
X87530000Y-25980000D02*
X92580000Y-25980000D01*
X88930000Y-19780000D02*
X90730000Y-19780000D01*
X88930000Y-25180000D02*
X90730000Y-25180000D01*
X92580000Y-18980000D02*
X87080000Y-18980000D01*
X92580000Y-18980000D02*
X92580000Y-25980000D01*
%TO.C,R3*%
X65334724Y-24895000D02*
X64825276Y-24895000D01*
X65334724Y-25940000D02*
X64825276Y-25940000D01*
%TO.C,SW7*%
X71730000Y-28330000D02*
X75830000Y-28330000D01*
X71730000Y-30730000D02*
X71730000Y-28330000D01*
X71730000Y-35530000D02*
X71730000Y-32930000D01*
X71730000Y-40130000D02*
X71730000Y-37730000D01*
X75830000Y-40130000D02*
X71730000Y-40130000D01*
X77830000Y-34730000D02*
X77830000Y-33730000D01*
X78330000Y-34230000D02*
X77330000Y-34230000D01*
X79830000Y-28330000D02*
X83930000Y-28330000D01*
X79830000Y-40130000D02*
X83930000Y-40130000D01*
X83930000Y-40130000D02*
X83930000Y-28330000D01*
X85030000Y-38330000D02*
X85330000Y-38030000D01*
X85330000Y-38030000D02*
X85630000Y-38330000D01*
X85630000Y-38330000D02*
X85030000Y-38330000D01*
X80830000Y-34230000D02*
G75*
G02*
X74830000Y-34230000I-3000000J0D01*
G01*
X74830000Y-34230000D02*
G75*
G02*
X80830000Y-34230000I3000000J0D01*
G01*
%TD*%
M02*
